<svg width="20" height="20" viewBox="0 0 20 20" fill="none" xmlns="http://www.w3.org/2000/svg">
<path fill-rule="evenodd" clip-rule="evenodd" d="M20 10.0005C20 15.523 15.5225 20.0005 10 20.0005C4.4775 20.0005 0 15.523 0 10.0005C0 4.47799 4.4775 0.000488281 10 0.000488281C15.5225 0.000488281 20 4.47799 20 10.0005ZM10.3583 7.38299C9.38583 7.78716 7.44167 8.62465 4.52667 9.89466C4.05333 10.083 3.805 10.2672 3.7825 10.4472C3.74417 10.7522 4.12583 10.8722 4.64417 11.0347C4.715 11.0572 4.78833 11.0797 4.86333 11.1047C5.37417 11.2705 6.06083 11.4647 6.4175 11.4722C6.74167 11.4788 7.10333 11.3455 7.5025 11.0722C10.2258 9.23299 11.6317 8.30382 11.72 8.28382C11.7825 8.26965 11.8692 8.25132 11.9275 8.30382C11.9858 8.35549 11.98 8.45382 11.9742 8.48049C11.9358 8.64132 10.4408 10.0322 9.66583 10.7522C9.42417 10.9763 9.25333 11.1355 9.21833 11.1722C9.14 11.253 9.06 11.3305 8.98333 11.4047C8.50833 11.8613 8.15333 12.2047 9.00333 12.7647C9.41167 13.0338 9.73833 13.2563 10.0642 13.478C10.42 13.7205 10.775 13.9622 11.235 14.2638C11.3517 14.3405 11.4633 14.4197 11.5725 14.4972C11.9867 14.793 12.3592 15.058 12.8192 15.0163C13.0858 14.9913 13.3625 14.7405 13.5025 13.9913C13.8333 12.2197 14.485 8.38299 14.6358 6.80132C14.645 6.67 14.6394 6.53806 14.6192 6.40799C14.607 6.30293 14.5559 6.20626 14.4758 6.13715C14.3567 6.03965 14.1717 6.01882 14.0883 6.02049C13.7125 6.02715 13.1358 6.22799 10.3583 7.38299Z" fill="white"/>
</svg>
