<svg width="30" height="31" viewBox="0 0 30 31" fill="none" xmlns="http://www.w3.org/2000/svg">
<path d="M20.625 0H9.375C4.19813 0 0 4.33806 0 9.6875V21.3125C0 26.6619 4.19813 31 9.375 31H20.625C25.8019 31 30 26.6619 30 21.3125V9.6875C30 4.33806 25.8019 0 20.625 0ZM27.1875 21.3125C27.1875 25.0519 24.2437 28.0938 20.625 28.0938H9.375C5.75625 28.0938 2.8125 25.0519 2.8125 21.3125V9.6875C2.8125 5.94812 5.75625 2.90625 9.375 2.90625H20.625C24.2437 2.90625 27.1875 5.94812 27.1875 9.6875V21.3125Z" fill="white"/>
<path d="M15 7.75C10.8581 7.75 7.5 11.2201 7.5 15.5C7.5 19.7799 10.8581 23.25 15 23.25C19.1419 23.25 22.5 19.7799 22.5 15.5C22.5 11.2201 19.1419 7.75 15 7.75ZM15 20.3437C12.4162 20.3437 10.3125 18.1699 10.3125 15.5C10.3125 12.8282 12.4162 10.6562 15 10.6562C17.5837 10.6562 19.6875 12.8282 19.6875 15.5C19.6875 18.1699 17.5837 20.3437 15 20.3437Z" fill="white"/>
<path d="M23.0595 8.20115C23.6112 8.20115 24.0584 7.73901 24.0584 7.16894C24.0584 6.59886 23.6112 6.13672 23.0595 6.13672C22.5078 6.13672 22.0605 6.59886 22.0605 7.16894C22.0605 7.73901 22.5078 8.20115 23.0595 8.20115Z" fill="white"/>
</svg>
