<svg width="20" height="20" viewBox="0 0 20 20" fill="none" xmlns="http://www.w3.org/2000/svg">
<path d="M10 0.000488281C4.47708 0.000488281 0 4.47757 0 10.0005C0 15.5234 4.47708 20.0005 10 20.0005C15.5229 20.0005 20 15.5234 20 10.0005C20 4.47757 15.5229 0.000488281 10 0.000488281ZM13.8458 11.2828C13.8458 11.2828 14.7302 12.1557 14.9479 12.5609C14.9542 12.5692 14.9573 12.5776 14.9594 12.5817C15.0479 12.7307 15.0688 12.8463 15.025 12.9328C14.9521 13.0765 14.7021 13.1474 14.6167 13.1536H13.0542C12.9458 13.1536 12.7188 13.1255 12.4437 12.9359C12.2323 12.788 12.024 12.5453 11.8208 12.3088C11.5177 11.9567 11.2552 11.6526 10.9906 11.6526C10.957 11.6525 10.9236 11.6578 10.8917 11.6682C10.6917 11.7328 10.4354 12.0182 10.4354 12.7786C10.4354 13.0161 10.2479 13.1526 10.1156 13.1526H9.4C9.15625 13.1526 7.88646 13.0672 6.76146 11.8807C5.38437 10.4276 4.14479 7.51299 4.13437 7.4859C4.05625 7.29736 4.21771 7.19632 4.39375 7.19632H5.97187C6.18229 7.19632 6.25104 7.32445 6.29896 7.43799C6.35521 7.57028 6.56146 8.09632 6.9 8.68799C7.44896 9.65257 7.78542 10.0442 8.05521 10.0442C8.1058 10.0436 8.15548 10.0308 8.2 10.0067C8.55208 9.8109 8.48646 8.5557 8.47083 8.29528C8.47083 8.24632 8.46979 7.73382 8.28958 7.48799C8.16042 7.30986 7.94062 7.24215 7.80729 7.21715C7.86126 7.14269 7.93236 7.0823 8.01458 7.04111C8.25625 6.92028 8.69167 6.90257 9.12396 6.90257H9.36458C9.83333 6.90882 9.95417 6.93903 10.124 6.98174C10.4677 7.06403 10.475 7.2859 10.4448 8.04528C10.4354 8.2609 10.426 8.50465 10.426 8.79215C10.426 8.85465 10.4229 8.92132 10.4229 8.99215C10.4125 9.37861 10.4 9.81715 10.6729 9.99736C10.7085 10.0197 10.7497 10.0316 10.7917 10.0317C10.8865 10.0317 11.1719 10.0317 11.9448 8.7057C12.1832 8.27888 12.3903 7.83536 12.5646 7.37861C12.5802 7.35153 12.626 7.2682 12.6802 7.2359C12.7202 7.21552 12.7645 7.20516 12.8094 7.2057H14.6646C14.8667 7.2057 15.0052 7.2359 15.0312 7.31403C15.0771 7.43799 15.0229 7.81611 14.176 8.96299L13.7979 9.46195C13.0302 10.4682 13.0302 10.5192 13.8458 11.2828Z" fill="white"/>
</svg>
